<svg xmlns="http://www.w3.org/2000/svg" viewBox="0 0 128 128" role="img" aria-labelledby="title desc">
  <title>Cat Icon (Black & White)</title>
  <desc>Minimal black and white cat icon</desc>
  <defs>
    <clipPath id="circleClip"><circle cx="64" cy="64" r="60"/></clipPath>
  </defs>
  <g clip-path="url(#circleClip)">
    <rect width="128" height="128" fill="#fff"/>
    <circle cx="64" cy="64" r="60" fill="#111"/>
    <!-- Ears -->
    <path d="M32 36 L48 20 L52 42 Z" fill="#fff"/>
    <path d="M96 36 L80 20 L76 42 Z" fill="#fff"/>
    <!-- Face -->
    <circle cx="64" cy="70" r="34" fill="#fff"/>
    <!-- Eyes -->
    <ellipse cx="50" cy="68" rx="6" ry="8" fill="#111"/>
    <ellipse cx="78" cy="68" rx="6" ry="8" fill="#111"/>
    <!-- Nose -->
    <polygon points="64,78 60,84 68,84" fill="#111"/>
    <!-- Whiskers -->
    <g stroke="#111" stroke-width="2" stroke-linecap="round">
      <line x1="34" y1="78" x2="54" y2="80"/>
      <line x1="34" y1="84" x2="54" y2="84"/>
      <line x1="34" y1="90" x2="54" y2="88"/>
      <line x1="74" y1="80" x2="94" y2="78"/>
      <line x1="74" y1="84" x2="94" y2="84"/>
      <line x1="74" y1="88" x2="94" y2="90"/>
    </g>
  </g>
</svg>
